<?xml version="1.0" encoding="UTF-8"?>
<!DOCTYPE svg PUBLIC "-//W3C//DTD SVG 1.1//EN" "http://www.w3.org/Graphics/SVG/1.1/DTD/svg11.dtd">
<svg xmlns="http://www.w3.org/2000/svg" version="1.1" width="846px" height="237px" style="shape-rendering:geometricPrecision; text-rendering:geometricPrecision; image-rendering:optimizeQuality; fill-rule:evenodd; clip-rule:evenodd" xmlns:xlink="http://www.w3.org/1999/xlink">
<g><path style="opacity:1" fill="#fefefe" d="M -0.5,-0.5 C 281.5,-0.5 563.5,-0.5 845.5,-0.5C 845.5,78.5 845.5,157.5 845.5,236.5C 563.5,236.5 281.5,236.5 -0.5,236.5C -0.5,157.5 -0.5,78.5 -0.5,-0.5 Z"/></g>
<g><path style="opacity:1" fill="#e96451" d="M 112.5,0.5 C 132.193,-0.266992 147.027,7.73301 157,24.5C 182.622,18.3111 200.622,27.3111 211,51.5C 212.006,55.5975 212.506,59.7642 212.5,64C 212.428,68.9606 211.928,73.7939 211,78.5C 235.092,94.1985 240.425,114.865 227,140.5C 222.684,146.325 217.351,150.992 211,154.5C 216.434,182.138 205.934,200.638 179.5,210C 171.871,210.993 164.371,210.493 157,208.5C 142.339,231.164 122.505,237.331 97.5,227C 90.1157,222.616 84.449,216.616 80.5,209C 62.5858,213.792 47.0858,209.625 34,196.5C 24.659,183.475 21.4924,169.142 24.5,153.5C 7.08891,142.669 -0.0777545,127.003 3,106.5C 6.58662,94.2441 13.92,84.9108 25,78.5C 20.0866,56.5602 26.9199,39.3936 45.5,27C 56.3366,22.1133 67.5033,21.28 79,24.5C 84.9694,14.8661 93.1361,7.69939 103.5,3C 106.628,2.15876 109.628,1.32543 112.5,0.5 Z"/></g>
<g><path style="opacity:1" fill="#fefcfb" d="M 111.5,7.5 C 131.862,5.92285 145.695,14.5895 153,33.5C 173.185,25.009 189.518,29.6757 202,47.5C 206.788,58.9206 206.622,70.254 201.5,81.5C 227.74,93.9809 233.907,112.981 220,138.5C 214.797,144.187 208.63,148.52 201.5,151.5C 209.389,169.777 205.722,185.277 190.5,198C 178.208,204.685 165.708,205.185 153,199.5C 145.463,218.858 131.297,227.358 110.5,225C 97.4762,220.811 88.4762,212.311 83.5,199.5C 66.0813,207.309 50.9147,204.309 38,190.5C 29.7724,177.791 28.439,164.457 34,150.5C 14.8362,142.514 6.83623,128.181 10,107.5C 12.0899,100.82 15.5899,94.9868 20.5,90C 25.2291,86.9766 29.8958,83.9766 34.5,81C 25.956,57.0927 33.2893,40.0927 56.5,30C 65.8944,28.5183 74.8944,29.685 83.5,33.5C 88.7712,20.2209 98.1045,11.5543 111.5,7.5 Z"/></g>
<g><path style="opacity:1" fill="#e96552" d="M 114.5,18.5 C 125.728,18.361 134.228,23.0276 140,32.5C 141.405,36.0721 141.738,39.7387 141,43.5C 133.333,51.1667 125.667,58.8333 118,66.5C 110.333,58.8333 102.667,51.1667 95,43.5C 95.2721,30.3862 101.772,22.0529 114.5,18.5 Z"/></g>
<g><path style="opacity:1" fill="#fefcfb" d="M 114.5,25.5 C 124.509,24.8304 131.176,29.1637 134.5,38.5C 129.583,44.9222 124.083,50.9222 118,56.5C 112.121,50.9567 106.621,45.1234 101.5,39C 104.033,32.6356 108.367,28.1356 114.5,25.5 Z"/></g>
<g><path style="opacity:1" fill="#060606" d="M 439.5,28.5 C 456.22,26.6107 471.887,29.7773 486.5,38C 497.224,45.9421 504.057,56.4421 507,69.5C 509.438,85.9367 507.105,101.603 500,116.5C 491.12,129.196 478.954,136.696 463.5,139C 448.027,140.954 433.027,139.288 418.5,134C 404.432,126.59 395.599,115.09 392,99.5C 388.223,81.732 390.889,65.0653 400,49.5C 410.312,37.0946 423.478,30.0946 439.5,28.5 Z"/></g>
<g><path style="opacity:1" fill="#424242" d="M 611.5,30.5 C 617.013,29.1843 622.68,29.1843 628.5,30.5C 628.376,31.1067 628.043,31.44 627.5,31.5C 622.36,30.5119 617.026,30.1786 611.5,30.5 Z"/></g>
<g><path style="opacity:1" fill="#050505" d="M 273.5,29.5 C 298.198,29.0812 322.864,29.5812 347.5,31C 370.884,37.2691 378.051,51.4357 369,73.5C 364.184,79.4922 358.017,83.3255 350.5,85C 359.414,86.3688 365.58,91.2021 369,99.5C 370.24,110.442 370.907,121.442 371,132.5C 371.792,134.587 372.959,136.421 374.5,138C 369.249,138.804 364.082,138.637 359,137.5C 357.438,135.043 356.438,132.376 356,129.5C 355.667,119.833 355.333,110.167 355,100.5C 352.934,95.3739 349.1,92.5406 343.5,92C 324.836,91.5001 306.17,91.3334 287.5,91.5C 287.5,107.167 287.5,122.833 287.5,138.5C 282.833,138.5 278.167,138.5 273.5,138.5C 273.5,102.167 273.5,65.8333 273.5,29.5 Z"/></g>
<g><path style="opacity:1" fill="#060606" d="M 611.5,30.5 C 617.026,30.1786 622.36,30.5119 627.5,31.5C 611.676,53.1372 595.843,74.8039 580,96.5C 579.5,110.496 579.333,124.496 579.5,138.5C 574.833,138.5 570.167,138.5 565.5,138.5C 565.667,124.163 565.5,109.829 565,95.5C 548.711,73.7557 532.545,51.9224 516.5,30C 522.167,29.3333 527.833,29.3333 533.5,30C 546.667,47.8333 559.833,65.6667 573,83.5C 585.855,65.766 598.688,48.0994 611.5,30.5 Z"/></g>
<g><path style="opacity:1" fill="#050505" d="M 682.5,29.5 C 686.884,29.1744 691.217,29.5078 695.5,30.5C 712.731,66.2927 729.398,102.293 745.5,138.5C 740.456,138.827 735.456,138.494 730.5,137.5C 726.453,127.856 722.12,118.356 717.5,109C 698.5,108.333 679.5,108.333 660.5,109C 655.47,118.557 651.137,128.39 647.5,138.5C 642.5,138.5 637.5,138.5 632.5,138.5C 648.889,102.054 665.556,65.7202 682.5,29.5 Z"/></g>
<g><path style="opacity:1" fill="#333333" d="M 774.5,29.5 C 774.5,29.8333 774.5,30.1667 774.5,30.5C 770.167,30.5 765.833,30.5 761.5,30.5C 761.5,66.5 761.5,102.5 761.5,138.5C 760.502,102.337 760.168,66.0038 760.5,29.5C 765.167,29.5 769.833,29.5 774.5,29.5 Z"/></g>
<g><path style="opacity:1" fill="#000000" d="M 774.5,30.5 C 774.5,62.5 774.5,94.5 774.5,126.5C 796.5,126.5 818.5,126.5 840.5,126.5C 840.5,130.5 840.5,134.5 840.5,138.5C 814.167,138.5 787.833,138.5 761.5,138.5C 761.5,102.5 761.5,66.5 761.5,30.5C 765.833,30.5 770.167,30.5 774.5,30.5 Z"/></g>
<g><path style="opacity:1" fill="#e8614e" d="M 82.5,77.5 C 82.5,78.5 82.5,79.5 82.5,80.5C 71.1667,80.5 59.8333,80.5 48.5,80.5C 41.1323,70.5412 40.6323,60.2079 47,49.5C 57.7688,38.6858 69.4355,37.6858 82,46.5C 82.4998,56.828 82.6665,67.1613 82.5,77.5 Z"/></g>
<g><path style="opacity:1" fill="#e86350" d="M 164.5,40.5 C 177.995,38.8475 187.495,44.1809 193,56.5C 195.613,65.1122 194.113,72.9456 188.5,80C 176.801,80.2299 165.134,80.7299 153.5,81.5C 153.168,69.8143 153.501,58.1477 154.5,46.5C 157.631,44.008 160.965,42.008 164.5,40.5 Z"/></g>
<g><path style="opacity:1" fill="#fdfdfd" d="M 438.5,40.5 C 484.789,38.9646 501.956,60.6312 490,105.5C 481.156,121.759 467.322,129.092 448.5,127.5C 419.765,127.265 405.098,112.765 404.5,84C 404.521,60.3852 415.854,45.8852 438.5,40.5 Z"/></g>
<g><path style="opacity:1" fill="#f9f9f9" d="M 287.5,41.5 C 306.88,41.0636 326.213,41.5636 345.5,43C 359.476,48.5909 362.976,58.0909 356,71.5C 353.222,74.8071 349.722,76.9738 345.5,78C 326.213,79.4364 306.88,79.9364 287.5,79.5C 287.5,66.8333 287.5,54.1667 287.5,41.5 Z"/></g>
<g><path style="opacity:1" fill="#fefdfd" d="M 75.5,50.5 C 75.5,58.1667 75.5,65.8333 75.5,73.5C 67.5,73.5 59.5,73.5 51.5,73.5C 47.5479,64.4155 49.2146,56.5822 56.5,50C 63.009,46.6737 69.3423,46.8404 75.5,50.5 Z"/></g>
<g><path style="opacity:1" fill="#fefafa" d="M 166.5,47.5 C 180.82,46.711 187.654,53.3777 187,67.5C 186.443,69.6147 185.609,71.6147 184.5,73.5C 176.528,74.4977 168.528,74.831 160.5,74.5C 160.334,66.4931 160.5,58.4931 161,50.5C 162.719,49.1312 164.552,48.1312 166.5,47.5 Z"/></g>
<g><path style="opacity:1" fill="#fbfbfb" d="M 687.5,47.5 C 688.376,47.3691 689.043,47.7025 689.5,48.5C 696.56,64.2871 703.893,79.9538 711.5,95.5C 696.515,96.4993 681.515,96.8327 666.5,96.5C 673.695,80.2487 680.695,63.9154 687.5,47.5 Z"/></g>
<g><path style="opacity:1" fill="#e8624f" d="M 94.5,59.5 C 100.871,64.7043 106.371,70.7043 111,77.5C 111.462,86.5611 112.128,95.5611 113,104.5C 107.65,97.4894 101.983,90.8228 96,84.5C 94.5943,76.2508 94.0943,67.9174 94.5,59.5 Z"/></g>
<g><path style="opacity:1" fill="#e96653" d="M 140.5,59.5 C 145.704,73.2951 142.537,84.9617 131,94.5C 128.578,98.3438 125.911,102.01 123,105.5C 123.997,96.5817 124.663,87.5817 125,78.5C 129.244,71.4219 134.411,65.0885 140.5,59.5 Z"/></g>
<g><path style="opacity:1" fill="#f3aca3" d="M 75.5,50.5 C 76.4924,58.3159 76.8257,66.3159 76.5,74.5C 67.9832,74.8261 59.6499,74.4927 51.5,73.5C 59.5,73.5 67.5,73.5 75.5,73.5C 75.5,65.8333 75.5,58.1667 75.5,50.5 Z"/></g>
<g><path style="opacity:1" fill="#fce6e2" d="M 134.5,75.5 C 135.75,78.4225 135.083,81.0891 132.5,83.5C 132.167,82.8333 131.833,82.1667 131.5,81.5C 132.489,79.5061 133.489,77.5061 134.5,75.5 Z"/></g>
<g><path style="opacity:1" fill="#fde7e3" d="M 101.5,76.5 C 104.575,78.3171 105.741,80.9838 105,84.5C 102.466,82.4315 101.299,79.7648 101.5,76.5 Z"/></g>
<g><path style="opacity:1" fill="#f2ada2" d="M 82.5,77.5 C 83.4345,78.5676 83.7678,79.901 83.5,81.5C 71.6547,81.8283 59.988,81.4949 48.5,80.5C 59.8333,80.5 71.1667,80.5 82.5,80.5C 82.5,79.5 82.5,78.5 82.5,77.5 Z"/></g>
<g><path style="opacity:1" fill="#e86350" d="M 60.5,93.5 C 69.497,91.8578 78.497,92.3578 87.5,95C 93.1974,101.026 99.5307,106.359 106.5,111C 100.821,111.024 95.1541,110.524 89.5,109.5C 85.7455,110.86 82.0788,110.694 78.5,109C 72.0382,104.372 66.0382,99.205 60.5,93.5 Z"/></g>
<g><path style="opacity:1" fill="#e86351" d="M 153.5,92.5 C 160.841,92.3337 168.174,92.5003 175.5,93C 171.167,97.3333 166.833,101.667 162.5,106C 157.907,109.868 152.74,111.034 147,109.5C 141.553,110.786 136.053,111.286 130.5,111C 137.095,106.409 143.095,101.076 148.5,95C 150.315,94.2432 151.981,93.4098 153.5,92.5 Z"/></g>
<g><path style="opacity:1" fill="#e96553" d="M 191.5,92.5 C 209.151,94.7999 216.984,104.8 215,122.5C 211.15,133.683 203.317,139.516 191.5,140C 183.652,132.319 175.985,124.486 168.5,116.5C 176.188,108.479 183.855,100.479 191.5,92.5 Z"/></g>
<g><path style="opacity:1" fill="#e96552" d="M 39.5,92.5 C 41.1992,92.3398 42.8659,92.5065 44.5,93C 52.3479,100.681 60.0146,108.514 67.5,116.5C 59.7353,125.436 51.2353,133.436 42,140.5C 26.1247,136.758 19.1247,126.758 21,110.5C 24.4753,101.522 30.642,95.5217 39.5,92.5 Z"/></g>
<g><path style="opacity:1" fill="#fefdfd" d="M 39.5,99.5 C 46.0479,104.375 52.0479,110.042 57.5,116.5C 52.3965,122.776 46.5632,128.11 40,132.5C 28.3462,127.582 25.0129,119.249 30,107.5C 32.7468,104.246 35.9135,101.58 39.5,99.5 Z"/></g>
<g><path style="opacity:1" fill="#fce9e6" d="M 77.5,100.5 C 80.5022,99.269 83.1689,99.9357 85.5,102.5C 82.6668,103.117 80.0002,102.45 77.5,100.5 Z"/></g>
<g><path style="opacity:1" fill="#fce8e5" d="M 154.5,99.5 C 158.29,99.0077 158.956,99.841 156.5,102C 149.714,104.346 149.047,103.512 154.5,99.5 Z"/></g>
<g><path style="opacity:1" fill="#fefcfb" d="M 194.5,99.5 C 208.917,104.676 212.417,114.009 205,127.5C 201.941,131.117 198.108,132.617 193.5,132C 188.318,126.985 183.318,121.819 178.5,116.5C 183.855,110.813 189.188,105.146 194.5,99.5 Z"/></g>
<g><path style="opacity:1" fill="#e96552" d="M 115.5,111.5 C 123.486,110.998 125.486,114.165 121.5,121C 112.724,121.774 110.724,118.607 115.5,111.5 Z"/></g>
<g><path style="opacity:1" fill="#e96653" d="M 104.5,120.5 C 105.552,120.351 106.552,120.517 107.5,121C 100.05,125.728 93.3834,131.395 87.5,138C 78.9723,140.58 70.3057,141.08 61.5,139.5C 66.7739,132.722 73.1072,127.222 80.5,123C 88.7411,122.987 96.7411,122.153 104.5,120.5 Z"/></g>
<g><path style="opacity:1" fill="#e96552" d="M 130.5,122.5 C 131.097,121.861 131.93,121.528 133,121.5C 140.476,122.249 147.976,122.749 155.5,123C 163.048,127.541 169.714,133.208 175.5,140C 167.103,140.87 158.77,140.537 150.5,139C 144.435,132.797 137.768,127.297 130.5,122.5 Z"/></g>
<g><path style="opacity:1" fill="#cccccc" d="M 774.5,29.5 C 775.498,61.329 775.832,93.329 775.5,125.5C 797.34,125.169 819.006,125.503 840.5,126.5C 818.5,126.5 796.5,126.5 774.5,126.5C 774.5,94.5 774.5,62.5 774.5,30.5C 774.5,30.1667 774.5,29.8333 774.5,29.5 Z"/></g>
<g><path style="opacity:1" fill="#fce4e1" d="M 81.5,129.5 C 82.9778,129.238 84.3112,129.571 85.5,130.5C 83.3451,132.829 80.6784,133.662 77.5,133C 79.0931,132.051 80.4264,130.885 81.5,129.5 Z"/></g>
<g><path style="opacity:1" fill="#e96451" d="M 122.5,127.5 C 126.183,131.025 129.35,135.025 132,139.5C 135.575,142.422 138.575,145.755 141,149.5C 142.53,157.436 142.863,165.436 142,173.5C 136.301,168.135 130.967,162.469 126,156.5C 124.931,146.822 123.764,137.155 122.5,127.5 Z"/></g>
<g><path style="opacity:1" fill="#fce5e2" d="M 150.5,130.5 C 151.601,129.402 152.934,129.235 154.5,130C 156.167,131 157.833,132 159.5,133C 156.007,133.869 153.007,133.036 150.5,130.5 Z"/></g>
<g><path style="opacity:1" fill="#e8624f" d="M 112.5,128.5 C 113.097,128.735 113.43,129.235 113.5,130C 112.23,139.167 111.063,148.334 110,157.5C 105.367,163.135 100.367,168.468 95,173.5C 94.1301,165.103 94.4635,156.77 96,148.5C 102.09,142.251 107.59,135.584 112.5,128.5 Z"/></g>
<g><path style="opacity:1" fill="#fde6e2" d="M 104.5,148.5 C 105.455,151.487 104.622,154.153 102,156.5C 101.018,153.225 101.851,150.559 104.5,148.5 Z"/></g>
<g><path style="opacity:1" fill="#fce2de" d="M 131.5,148.5 C 134.519,150.716 135.686,153.716 135,157.5C 132.169,155.162 131.003,152.162 131.5,148.5 Z"/></g>
<g><path style="opacity:1" fill="#e86350" d="M 48.5,151.5 C 59.8333,151.5 71.1667,151.5 82.5,151.5C 82.8322,163.186 82.4989,174.852 81.5,186.5C 71.318,194.314 60.9847,194.481 50.5,187C 40.6945,175.649 40.0279,163.816 48.5,151.5 Z"/></g>
<g><path style="opacity:1" fill="#e96552" d="M 153.5,151.5 C 164.838,151.333 176.172,151.5 187.5,152C 197.548,164.858 196.548,176.858 184.5,188C 173.678,194.541 163.511,193.708 154,185.5C 153.5,174.172 153.333,162.838 153.5,151.5 Z"/></g>
<g><path style="opacity:1" fill="#fef8f7" d="M 52.5,158.5 C 60.5,158.5 68.5,158.5 76.5,158.5C 76.831,166.528 76.4977,174.528 75.5,182.5C 66.5906,187.381 58.7573,186.048 52,178.5C 48.5193,171.654 48.686,164.987 52.5,158.5 Z"/></g>
<g><path style="opacity:1" fill="#fefbfa" d="M 160.5,158.5 C 168.507,158.334 176.507,158.5 184.5,159C 190.233,171.133 186.9,179.799 174.5,185C 169.928,185.887 165.595,185.22 161.5,183C 160.518,174.919 160.184,166.752 160.5,158.5 Z"/></g>
<g><path style="opacity:1" fill="#e8624f" d="M 117.5,166.5 C 125.417,173.916 133.251,181.582 141,189.5C 141.386,201.45 135.886,209.283 124.5,213C 106.27,215.419 96.4367,207.585 95,189.5C 102.702,181.965 110.202,174.298 117.5,166.5 Z"/></g>
<g><path style="opacity:1" fill="#e96451" d="M 378.5,167.5 C 380.867,172.928 382.867,178.595 384.5,184.5C 390.807,185.331 397.141,185.831 403.5,186C 398.192,189.645 393.192,193.645 388.5,198C 391.046,203.291 392.546,208.791 393,214.5C 388.304,210.972 383.471,207.638 378.5,204.5C 373.397,207.802 368.564,211.469 364,215.5C 365.538,209.218 366.871,202.884 368,196.5C 363.167,193 358.333,189.5 353.5,186C 360.158,185.5 366.825,185.334 373.5,185.5C 374.758,179.391 376.425,173.391 378.5,167.5 Z"/></g>
<g><path style="opacity:1" fill="#e96552" d="M 725.5,168.5 C 726.497,168.47 727.164,168.97 727.5,170C 729.068,174.871 730.735,179.704 732.5,184.5C 738.807,185.331 745.141,185.831 751.5,186C 746.667,189.5 741.833,193 737,196.5C 737.856,202.084 739.356,207.584 741.5,213C 741.167,213.5 740.833,214 740.5,214.5C 736.112,210.779 731.445,207.445 726.5,204.5C 721.184,208.37 715.851,211.87 710.5,215C 713.165,209.011 714.999,202.844 716,196.5C 711.167,193 706.333,189.5 701.5,186C 707.859,185.831 714.193,185.331 720.5,184.5C 722.575,179.276 724.242,173.942 725.5,168.5 Z"/></g>
<g><path style="opacity:1" fill="#101010" d="M 501.5,171.5 C 508.23,171.226 514.897,171.726 521.5,173C 535.604,178.961 539.771,189.128 534,203.5C 530.242,209.635 524.742,213.135 517.5,214C 508.011,215.584 499.011,214.25 490.5,210C 480.252,199.284 479.919,188.284 489.5,177C 493.227,174.299 497.227,172.465 501.5,171.5 Z"/></g>
<g><path style="opacity:1" fill="#393939" d="M 597.5,172.5 C 610.656,171.504 623.99,171.171 637.5,171.5C 637.5,173.167 637.5,174.833 637.5,176.5C 637.167,176.5 636.833,176.5 636.5,176.5C 636.5,175.167 636.5,173.833 636.5,172.5C 623.5,172.5 610.5,172.5 597.5,172.5 Z"/></g>
<g><path style="opacity:1" fill="#080808" d="M 426.5,172.5 C 428.167,172.5 429.833,172.5 431.5,172.5C 431.177,178.69 431.51,184.69 432.5,190.5C 444.5,190.5 456.5,190.5 468.5,190.5C 469.49,184.69 469.823,178.69 469.5,172.5C 471.167,172.5 472.833,172.5 474.5,172.5C 474.5,186.5 474.5,200.5 474.5,214.5C 472.5,214.5 470.5,214.5 468.5,214.5C 468.5,208.167 468.5,201.833 468.5,195.5C 456.5,195.5 444.5,195.5 432.5,195.5C 432.5,201.833 432.5,208.167 432.5,214.5C 430.5,214.5 428.5,214.5 426.5,214.5C 426.5,200.5 426.5,186.5 426.5,172.5 Z"/></g>
<g><path style="opacity:1" fill="#565656" d="M 426.5,172.5 C 428.265,171.539 430.265,171.205 432.5,171.5C 432.5,177.833 432.5,184.167 432.5,190.5C 431.51,184.69 431.177,178.69 431.5,172.5C 429.833,172.5 428.167,172.5 426.5,172.5 Z"/></g>
<g><path style="opacity:1" fill="#5c5c5c" d="M 474.5,172.5 C 472.833,172.5 471.167,172.5 469.5,172.5C 469.823,178.69 469.49,184.69 468.5,190.5C 468.5,184.167 468.5,177.833 468.5,171.5C 470.735,171.205 472.735,171.539 474.5,172.5 Z"/></g>
<g><path style="opacity:1" fill="#0b0b0b" d="M 541.5,171.5 C 557.5,171.5 573.5,171.5 589.5,171.5C 589.5,173.167 589.5,174.833 589.5,176.5C 582.5,176.5 575.5,176.5 568.5,176.5C 568.5,189.167 568.5,201.833 568.5,214.5C 566.5,214.5 564.5,214.5 562.5,214.5C 562.5,201.833 562.5,189.167 562.5,176.5C 555.5,176.5 548.5,176.5 541.5,176.5C 541.5,174.833 541.5,173.167 541.5,171.5 Z"/></g>
<g><path style="opacity:1" fill="#000000" d="M 597.5,172.5 C 610.5,172.5 623.5,172.5 636.5,172.5C 636.5,173.833 636.5,175.167 636.5,176.5C 625.167,176.5 613.833,176.5 602.5,176.5C 602.5,181.167 602.5,185.833 602.5,190.5C 612.833,190.5 623.167,190.5 633.5,190.5C 633.5,191.833 633.5,193.167 633.5,194.5C 622.986,194.172 612.653,194.506 602.5,195.5C 602.5,200.167 602.5,204.833 602.5,209.5C 614.5,209.5 626.5,209.5 638.5,209.5C 638.5,211.167 638.5,212.833 638.5,214.5C 624.833,214.5 611.167,214.5 597.5,214.5C 597.5,200.5 597.5,186.5 597.5,172.5 Z"/></g>
<g><path style="opacity:1" fill="#5c5c5c" d="M 651.5,171.5 C 651.5,171.833 651.5,172.167 651.5,172.5C 649.833,172.5 648.167,172.5 646.5,172.5C 646.5,186.5 646.5,200.5 646.5,214.5C 645.504,200.343 645.171,186.01 645.5,171.5C 647.5,171.5 649.5,171.5 651.5,171.5 Z"/></g>
<g><path style="opacity:1" fill="#000000" d="M 651.5,172.5 C 651.5,184.833 651.5,197.167 651.5,209.5C 661.833,209.5 672.167,209.5 682.5,209.5C 682.5,211.167 682.5,212.833 682.5,214.5C 670.5,214.5 658.5,214.5 646.5,214.5C 646.5,200.5 646.5,186.5 646.5,172.5C 648.167,172.5 649.833,172.5 651.5,172.5 Z"/></g>
<g><path style="opacity:1" fill="#d7d7d7" d="M 651.5,171.5 C 652.495,183.655 652.829,195.989 652.5,208.5C 662.681,208.173 672.681,208.506 682.5,209.5C 672.167,209.5 661.833,209.5 651.5,209.5C 651.5,197.167 651.5,184.833 651.5,172.5C 651.5,172.167 651.5,171.833 651.5,171.5 Z"/></g>
<g><path style="opacity:1" fill="#fafafa" d="M 500.5,176.5 C 506.176,176.334 511.843,176.501 517.5,177C 529.954,181.676 533.454,190.176 528,202.5C 525.441,205.531 522.274,207.698 518.5,209C 512.5,209.667 506.5,209.667 500.5,209C 489.545,204.585 486.045,196.752 490,185.5C 492.468,181.199 495.968,178.199 500.5,176.5 Z"/></g>
<g><path style="opacity:1" fill="#fefafa" d="M 117.5,176.5 C 123.409,180.902 128.909,185.902 134,191.5C 133.477,201.357 128.143,206.691 118,207.5C 109.829,206.334 104.329,201.834 101.5,194C 106.658,188.009 111.991,182.175 117.5,176.5 Z"/></g>
<g><path style="opacity:1" fill="#b3b3b3" d="M 636.5,176.5 C 636.833,176.5 637.167,176.5 637.5,176.5C 626.346,177.495 615.012,177.828 603.5,177.5C 603.5,181.5 603.5,185.5 603.5,189.5C 614.014,189.172 624.347,189.506 634.5,190.5C 634.167,190.5 633.833,190.5 633.5,190.5C 623.167,190.5 612.833,190.5 602.5,190.5C 602.5,185.833 602.5,181.167 602.5,176.5C 613.833,176.5 625.167,176.5 636.5,176.5 Z"/></g>
<g><path style="opacity:1" fill="#363636" d="M 633.5,190.5 C 633.833,190.5 634.167,190.5 634.5,190.5C 634.5,192.167 634.5,193.833 634.5,195.5C 623.833,195.5 613.167,195.5 602.5,195.5C 612.653,194.506 622.986,194.172 633.5,194.5C 633.5,193.167 633.5,191.833 633.5,190.5 Z"/></g>
</svg>
