<?xml version="1.0" encoding="UTF-8"?>
<!DOCTYPE svg PUBLIC "-//W3C//DTD SVG 1.1//EN" "http://www.w3.org/Graphics/SVG/1.1/DTD/svg11.dtd">
<svg xmlns="http://www.w3.org/2000/svg" version="1.1" width="846px" height="237px" style="shape-rendering:geometricPrecision; text-rendering:geometricPrecision; image-rendering:optimizeQuality; fill-rule:evenodd; clip-rule:evenodd" xmlns:xlink="http://www.w3.org/1999/xlink">
<g><path style="opacity:0.998" fill="#ff5f4a" d="M 136.5,3.5 C 144.758,7.42382 151.092,13.4238 155.5,21.5C 156.325,22.3857 157.325,22.719 158.5,22.5C 164.639,22.6044 170.972,22.7711 177.5,23C 179.355,23.4221 181.189,23.9221 183,24.5C 183.765,24.4301 184.265,24.0967 184.5,23.5C 202.781,30.6434 212.448,44.1434 213.5,64C 212.973,68.1915 212.306,72.3581 211.5,76.5C 229.602,88.3719 237.102,105.039 234,126.5C 229.858,138.966 222.358,148.799 211.5,156C 216.81,183.721 206.144,202.054 179.5,211C 173.5,211.667 167.5,211.667 161.5,211C 159.899,210.727 158.399,210.227 157,209.5C 149.691,222.741 138.524,230.408 123.5,232.5C 111.049,232.907 99.7152,229.24 89.5,221.5C 85.4563,218.78 82.4563,215.113 80.5,210.5C 80.9382,210.565 81.2716,210.399 81.5,210C 80.737,209.056 79.737,208.556 78.5,208.5C 56.1892,213.592 39.3558,206.259 28,186.5C 27.6012,186.728 27.4346,187.062 27.5,187.5C 26.6618,187.158 26.3284,186.492 26.5,185.5C 27.0431,185.44 27.3764,185.107 27.5,184.5C 23.8828,174.286 23.5495,163.952 26.5,153.5C 22.8988,152.366 19.5655,150.699 16.5,148.5C 9.10108,143.063 4.43441,135.73 2.5,126.5C -0.0875143,105.174 7.91249,89.0077 26.5,78C 25.9056,77.5357 25.2389,77.369 24.5,77.5C 21.9405,69.3668 21.9405,61.3668 24.5,53.5C 24.369,54.2389 24.5357,54.9056 25,55.5C 32.6578,31.091 49.1578,20.4243 74.5,23.5C 75.2975,23.0431 75.6309,22.3764 75.5,21.5C 76.1667,21.8333 76.8333,22.1667 77.5,22.5C 77.8425,24.2252 78.8425,24.7252 80.5,24C 93.5262,2.83056 111.86,-3.66944 135.5,4.5C 136.107,4.37642 136.44,4.04309 136.5,3.5 Z M 129.5,9.5 C 140.378,13.8822 147.712,21.7155 151.5,33C 155.588,32.6396 159.588,31.6396 163.5,30C 182.659,27.8362 195.826,35.6695 203,53.5C 203.956,56.9303 204.456,60.4303 204.5,64C 204.021,70.3939 202.854,76.5605 201,82.5C 223.296,92.0924 230.629,108.426 223,131.5C 217.65,140.519 210.15,147.019 200.5,151C 208.692,169.903 204.692,185.569 188.5,198C 176.72,205.074 164.886,205.241 153,198.5C 149.983,204.854 146.15,210.687 141.5,216C 127.269,226.48 112.602,227.146 97.5,218C 91.5937,213.009 87.5937,206.842 85.5,199.5C 67.8549,207.19 52.3549,204.19 39,190.5C 30.4258,178.209 29.2592,165.209 35.5,151.5C 28.3576,147.548 21.8576,142.548 16,136.5C 5.20258,117.872 8.03592,101.705 24.5,88C 27.9712,85.9281 31.6379,84.4281 35.5,83.5C 26.9658,63.4638 31.2991,46.9638 48.5,34C 56.0306,29.9324 64.0306,28.5991 72.5,30C 76.5425,31.2445 80.5425,32.2445 84.5,33C 87.2579,25.6239 91.5912,19.4572 97.5,14.5C 107.405,8.07159 118.071,6.40492 129.5,9.5 Z M 112.5,26.5 C 122.96,24.6552 129.96,28.6552 133.5,38.5C 128.333,44.1667 123.167,49.8333 118,55.5C 112.25,50.255 107.083,44.5883 102.5,38.5C 104.062,32.945 107.395,28.945 112.5,26.5 Z M 75.5,52.5 C 74.6204,59.1228 74.287,65.7895 74.5,72.5C 68.5,72.5 62.5,72.5 56.5,72.5C 53.7615,73.0352 51.9282,72.0352 51,69.5C 49.135,54.0316 55.9683,47.1983 71.5,49C 73.3502,49.6897 74.6836,50.8564 75.5,52.5 Z M 184.5,71.5 C 176.586,72.4672 168.586,72.8005 160.5,72.5C 160.334,65.4921 160.5,58.4921 161,51.5C 169.716,46.5407 177.383,47.874 184,55.5C 187.025,60.7711 187.192,66.1044 184.5,71.5 Z M 41.5,100.5 C 46.4783,105.813 51.4783,111.146 56.5,116.5C 51.479,122.188 46.1457,127.521 40.5,132.5C 27.9711,126.585 25.1378,117.585 32,105.5C 34.6034,102.722 37.77,101.056 41.5,100.5 Z M 194.5,100.5 C 203.082,102.311 207.416,107.645 207.5,116.5C 206.945,124.392 202.945,129.725 195.5,132.5C 189.833,127.5 184.5,122.167 179.5,116.5C 184.522,111.146 189.522,105.813 194.5,100.5 Z M 52.5,159.5 C 59.8333,159.5 67.1667,159.5 74.5,159.5C 74.8308,167.196 74.4975,174.862 73.5,182.5C 54.3609,186.025 47.3609,178.359 52.5,159.5 Z M 160.5,159.5 C 168.174,159.334 175.841,159.5 183.5,160C 188.432,169.87 186.099,177.537 176.5,183C 171.268,185.13 166.268,184.63 161.5,181.5C 160.503,174.197 160.169,166.863 160.5,159.5 Z M 117.5,177.5 C 123.342,182.509 128.675,188.009 133.5,194C 127.651,207.352 118.651,210.019 106.5,202C 104.524,199.853 103.191,197.353 102.5,194.5C 107.12,188.544 112.12,182.877 117.5,177.5 Z"/></g>
<g><path style="opacity:0.294" fill="#ff9587" d="M 108.5,-0.5 C 114.833,-0.5 121.167,-0.5 127.5,-0.5C 130.357,0.977079 133.357,2.31041 136.5,3.5C 136.44,4.04309 136.107,4.37642 135.5,4.5C 111.86,-3.66944 93.5262,2.83056 80.5,24C 78.8425,24.7252 77.8425,24.2252 77.5,22.5C 81.2009,20.5237 84.0342,17.5237 86,13.5C 92.3869,6.92716 99.8869,2.26049 108.5,-0.5 Z"/></g>
<g><path style="opacity:0.729" fill="#ff472f" d="M 129.5,9.5 C 118.071,6.40492 107.405,8.07159 97.5,14.5C 97.0618,14.5654 96.7284,14.3988 96.5,14C 107.235,6.24112 118.902,4.57445 131.5,9C 130.906,9.46434 130.239,9.63101 129.5,9.5 Z"/></g>
<g><path style="opacity:0.998" fill="#ff5f4a" d="M 127.5,19.5 C 137.704,24.2382 142.537,32.2382 142,43.5C 134.5,51 127,58.5 119.5,66C 118.5,66.6667 117.5,66.6667 116.5,66C 109,58.5 101.5,51 94,43.5C 93.2109,41.2884 93.3775,39.2884 94.5,37.5C 94.369,38.2389 94.5357,38.9056 95,39.5C 96.6133,29.2197 102.447,22.7197 112.5,20C 117.715,19.71 122.715,19.5433 127.5,19.5 Z M 112.5,26.5 C 107.395,28.945 104.062,32.945 102.5,38.5C 107.083,44.5883 112.25,50.255 118,55.5C 123.167,49.8333 128.333,44.1667 133.5,38.5C 129.96,28.6552 122.96,24.6552 112.5,26.5 Z"/></g>
<g><path style="opacity:0.792" fill="#ff8676" d="M 184.5,23.5 C 184.265,24.0967 183.765,24.4301 183,24.5C 181.189,23.9221 179.355,23.4221 177.5,23C 170.972,22.7711 164.639,22.6044 158.5,22.5C 167.354,19.8194 176.021,20.1528 184.5,23.5 Z"/></g>
<g><path style="opacity:0.522" fill="#ff8574" d="M 127.5,19.5 C 122.715,19.5433 117.715,19.71 112.5,20C 102.447,22.7197 96.6133,29.2197 95,39.5C 94.5357,38.9056 94.369,38.2389 94.5,37.5C 97.1996,24.9769 105.033,18.3102 118,17.5C 121.233,17.9339 124.4,18.6006 127.5,19.5 Z"/></g>
<g><path style="opacity:0.386" fill="#343434" d="M 485.5,36.5 C 485.565,36.9382 485.399,37.2716 485,37.5C 467.888,28.7227 449.888,26.3894 431,30.5C 429.93,30.472 429.097,30.1386 428.5,29.5C 444.252,25.4493 459.918,25.9493 475.5,31C 479.346,32.0859 482.68,33.9193 485.5,36.5 Z"/></g>
<g><path style="opacity:0.889" fill="#ffffff" d="M 485.5,36.5 C 497.923,43.9755 505.423,54.9755 508,69.5C 513.01,119.825 490.177,143.325 439.5,140C 411.258,137.483 394.758,122.316 390,94.5C 386.185,71.9389 392.685,53.1055 409.5,38C 415.352,34.0739 421.685,31.2405 428.5,29.5C 429.097,30.1386 429.93,30.472 431,30.5C 449.888,26.3894 467.888,28.7227 485,37.5C 485.399,37.2716 485.565,36.9382 485.5,36.5 Z M 446.5,40.5 C 484.855,42.8367 499.689,62.8367 491,100.5C 485.841,115.507 475.341,124.007 459.5,126C 416.712,128.537 399.545,108.704 408,66.5C 411.301,57.5307 417.134,50.6973 425.5,46C 432.346,43.0399 439.346,41.2066 446.5,40.5 Z"/></g>
<g><path style="opacity:0.921" fill="#333333" d="M 354.5,31.5 C 354.083,32.1239 353.416,32.4573 352.5,32.5C 350.181,31.9361 347.847,31.4361 345.5,31C 321.169,30.5 296.836,30.3334 272.5,30.5C 284.148,29.1676 296.148,28.501 308.5,28.5C 320.5,28.6667 332.5,28.8333 344.5,29C 347.929,29.5334 351.262,30.3668 354.5,31.5 Z"/></g>
<g><path style="opacity:0.897" fill="#ffffff" d="M 612.5,28.5 C 612.611,29.1174 612.944,29.6174 613.5,30C 619.035,30.3691 624.369,30.5357 629.5,30.5C 613.343,52.804 597.176,75.1373 581,97.5C 580.5,111.163 580.333,124.829 580.5,138.5C 575.167,138.5 569.833,138.5 564.5,138.5C 564.667,124.496 564.5,110.496 564,96.5C 549,75.8333 534,55.1667 519,34.5C 517.441,32.7834 516.608,30.7834 516.5,28.5C 522.509,28.3338 528.509,28.5005 534.5,29C 547.333,46.5 560.167,64 573,81.5C 585.722,64.4447 598.055,47.1114 610,29.5C 610.671,28.7476 611.504,28.4142 612.5,28.5 Z"/></g>
<g><path style="opacity:0.923" fill="#2d2b2b" d="M 612.5,28.5 C 618.598,27.8833 624.265,28.55 629.5,30.5C 624.369,30.5357 619.035,30.3691 613.5,30C 612.944,29.6174 612.611,29.1174 612.5,28.5 Z"/></g>
<g><path style="opacity:0.925" fill="#ffffff" d="M 760.5,29.5 C 765.52,30.3878 770.52,30.7211 775.5,30.5C 775.5,62.1667 775.5,93.8333 775.5,125.5C 797.503,125.333 819.503,125.5 841.5,126C 842.464,130.066 842.797,134.233 842.5,138.5C 814.833,138.5 787.167,138.5 759.5,138.5C 759.168,101.996 759.502,65.6628 760.5,29.5 Z"/></g>
<g><path style="opacity:0.92" fill="#313131" d="M 775.5,30.5 C 770.52,30.7211 765.52,30.3878 760.5,29.5C 762.81,28.8362 765.31,28.5029 768,28.5C 770.929,28.5248 773.429,29.1914 775.5,30.5 Z"/></g>
<g><path style="opacity:0.897" fill="#ffffff" d="M 272.5,30.5 C 296.836,30.3334 321.169,30.5 345.5,31C 347.847,31.4361 350.181,31.9361 352.5,32.5C 353.416,32.4573 354.083,32.1239 354.5,31.5C 373.2,40.4296 378.367,54.4296 370,73.5C 366.009,78.8113 360.843,82.6447 354.5,85C 361.181,87.0133 366.014,91.18 369,97.5C 370.229,107.441 370.896,117.441 371,127.5C 371.273,131.544 372.773,135.044 375.5,138C 371.137,138.29 366.804,138.79 362.5,139.5C 357.672,138.501 355.172,135.501 355,130.5C 354.87,120.118 354.204,109.784 353,99.5C 351.132,95.4794 347.965,93.3128 343.5,93C 325.17,92.5001 306.836,92.3334 288.5,92.5C 288.5,107.833 288.5,123.167 288.5,138.5C 283.167,138.5 277.833,138.5 272.5,138.5C 272.5,102.5 272.5,66.5 272.5,30.5 Z M 343.5,77.5 C 327.167,77.5 310.833,77.5 294.5,77.5C 292.5,77.5 290.5,77.5 288.5,77.5C 288.5,65.8333 288.5,54.1667 288.5,42.5C 305.837,42.3334 323.17,42.5001 340.5,43C 356.813,46.1272 361.647,55.2939 355,70.5C 351.786,74.0162 347.953,76.3495 343.5,77.5 Z"/></g>
<g><path style="opacity:0.92" fill="#ffffff" d="M 681.5,28.5 C 686.544,28.1725 691.544,28.5059 696.5,29.5C 714.006,65.5074 730.672,101.841 746.5,138.5C 741.156,138.666 735.823,138.499 730.5,138C 726.038,128.909 721.705,119.743 717.5,110.5C 698.842,109.334 680.176,109.167 661.5,110C 657.038,119.091 652.705,128.257 648.5,137.5C 642.833,138.833 637.167,138.833 631.5,137.5C 648.452,101.264 665.119,64.9311 681.5,28.5 Z M 688.5,49.5 C 696.203,64.4076 703.536,79.5743 710.5,95C 696.167,95.6667 681.833,95.6667 667.5,95C 674.985,80.0379 681.985,64.8712 688.5,49.5 Z"/></g>
<g><path style="opacity:0.467" fill="#ff8374" d="M 75.5,21.5 C 75.6309,22.3764 75.2975,23.0431 74.5,23.5C 49.1578,20.4243 32.6578,31.091 25,55.5C 24.5357,54.9056 24.369,54.2389 24.5,53.5C 28.5743,36.9251 38.9076,26.4251 55.5,22C 62.1408,20.2641 68.8075,20.0974 75.5,21.5 Z"/></g>
<g><path style="opacity:0.988" fill="#ff5e48" d="M 69.5,39.5 C 74.461,40.1473 78.7944,42.1473 82.5,45.5C 83.3964,57.204 83.8964,68.8707 84,80.5C 83.2613,81.5742 82.2613,82.2409 81,82.5C 69.8669,81.6987 58.7002,81.1987 47.5,81C 45.1707,78.1745 43.5041,75.0078 42.5,71.5C 40.6289,54.2845 48.2956,43.9511 65.5,40.5C 66.7716,40.5698 67.9383,40.9032 69,41.5C 69.4643,40.9056 69.631,40.2389 69.5,39.5 Z M 75.5,52.5 C 74.6204,59.1228 74.287,65.7895 74.5,72.5C 68.5,72.5 62.5,72.5 56.5,72.5C 53.7615,73.0352 51.9282,72.0352 51,69.5C 49.135,54.0316 55.9683,47.1983 71.5,49C 73.3502,49.6897 74.6836,50.8564 75.5,52.5 Z"/></g>
<g><path style="opacity:0.995" fill="#fe5e49" d="M 180.5,41.5 C 191.958,47.7567 196.458,57.4234 194,70.5C 192.819,74.3629 190.986,77.8629 188.5,81C 176.794,81.4208 165.128,81.7541 153.5,82C 152.512,70.5809 152.179,59.0809 152.5,47.5C 153.33,56.9913 153.83,66.658 154,76.5C 154.333,66.5 154.667,56.5 155,46.5C 162.437,40.7126 170.604,39.3793 179.5,42.5C 180.107,42.3764 180.44,42.0431 180.5,41.5 Z M 184.5,71.5 C 176.586,72.4672 168.586,72.8005 160.5,72.5C 160.334,65.4921 160.5,58.4921 161,51.5C 169.716,46.5407 177.383,47.874 184,55.5C 187.025,60.7711 187.192,66.1044 184.5,71.5 Z"/></g>
<g><path style="opacity:0.416" fill="#ff8170" d="M 69.5,39.5 C 69.631,40.2389 69.4643,40.9056 69,41.5C 67.9383,40.9032 66.7716,40.5698 65.5,40.5C 48.2956,43.9511 40.6289,54.2845 42.5,71.5C 39.1324,56.0659 44.799,45.5659 59.5,40C 62.8168,39.5017 66.1501,39.335 69.5,39.5 Z"/></g>
<g><path style="opacity:1" fill="#fe8676" d="M 180.5,41.5 C 180.44,42.0431 180.107,42.3764 179.5,42.5C 170.604,39.3793 162.437,40.7126 155,46.5C 154.667,56.5 154.333,66.5 154,76.5C 153.83,66.658 153.33,56.9913 152.5,47.5C 158.937,40.5235 166.937,38.0235 176.5,40C 177.901,40.4101 179.234,40.9101 180.5,41.5 Z"/></g>
<g><path style="opacity:0.991" fill="#ff614c" d="M 93.5,58.5 C 100.063,63.2271 105.897,68.8938 111,75.5C 112.02,85.1669 113.186,94.8335 114.5,104.5C 114.167,105.167 113.833,105.833 113.5,106.5C 107.897,98.7274 101.731,91.394 95,84.5C 93.5901,75.9164 93.0901,67.2498 93.5,58.5 Z"/></g>
<g><path style="opacity:1" fill="#ff614c" d="M 142.5,59.5 C 142.906,67.9174 142.406,76.2508 141,84.5C 134.47,91.0372 128.636,98.2039 123.5,106C 123.167,106.167 122.833,106.333 122.5,106.5C 122.167,105.5 121.833,104.5 121.5,103.5C 122.913,94.8921 123.746,86.2255 124,77.5C 124.697,75.4156 125.864,73.7489 127.5,72.5C 127.435,72.9382 127.601,73.2716 128,73.5C 132.702,68.6301 137.535,63.9634 142.5,59.5 Z"/></g>
<g><path style="opacity:0.687" fill="#ff7f6e" d="M 56.5,72.5 C 62.5,72.5 68.5,72.5 74.5,72.5C 74.287,65.7895 74.6204,59.1228 75.5,52.5C 76.5089,58.4373 76.8423,65.7707 76.5,74.5C 68.4931,74.6664 60.4931,74.4997 52.5,74C 54.0581,73.79 55.3915,73.29 56.5,72.5 Z"/></g>
<g><path style="opacity:0.882" fill="#fe8576" d="M 142.5,59.5 C 137.535,63.9634 132.702,68.6301 128,73.5C 127.601,73.2716 127.435,72.9382 127.5,72.5C 131.63,67.8688 135.963,63.3688 140.5,59C 141.437,58.3083 142.103,58.475 142.5,59.5 Z"/></g>
<g><path style="opacity:0.067" fill="#ff897a" d="M 184.5,71.5 C 185.774,72.1894 185.774,73.0228 184.5,74C 180.5,74.1667 176.5,74.3333 172.5,74.5C 168.107,74.4907 164.107,73.824 160.5,72.5C 168.586,72.8005 176.586,72.4672 184.5,71.5 Z"/></g>
<g><path style="opacity:0.043" fill="#212121" d="M 294.5,77.5 C 310.833,77.5 327.167,77.5 343.5,77.5C 344.239,77.369 344.906,77.5357 345.5,78C 344.167,78.3333 342.833,78.6667 341.5,79C 323.5,79.6667 305.5,79.6667 287.5,79C 290.036,78.8138 292.369,78.3138 294.5,77.5 Z"/></g>
<g><path style="opacity:0.999" fill="#ff604b" d="M 40.5,91.5 C 41.8734,91.3433 43.2068,91.51 44.5,92C 53.2614,99.7171 61.5947,107.884 69.5,116.5C 61.3744,124.125 53.3744,131.958 45.5,140C 26.4621,139.478 17.9621,129.644 20,110.5C 23.2178,100.16 30.0511,93.8269 40.5,91.5 Z M 41.5,100.5 C 46.4783,105.813 51.4783,111.146 56.5,116.5C 51.479,122.188 46.1457,127.521 40.5,132.5C 27.9711,126.585 25.1378,117.585 32,105.5C 34.6034,102.722 37.77,101.056 41.5,100.5 Z"/></g>
<g><path style="opacity:0.997" fill="#ff624d" d="M 60.5,91.5 C 68.8933,91.1696 77.2267,91.6696 85.5,93C 89.4435,94.6104 92.4435,97.2771 94.5,101C 99.4537,104.285 104.12,107.952 108.5,112C 102.322,112.001 96.1556,111.501 90,110.5C 83.52,111.902 77.6867,110.402 72.5,106C 68.1667,101.667 63.8333,97.3333 59.5,93C 60.056,92.6174 60.3893,92.1174 60.5,91.5 Z"/></g>
<g><path style="opacity:1" fill="#ff5e49" d="M 156.5,91.5 C 163.345,91.0421 170.012,91.5421 176.5,93C 170.328,100.513 162.995,106.513 154.5,111C 148.529,110.293 142.529,110.46 136.5,111.5C 134.724,111.206 132.724,111.04 130.5,111C 137.187,107.157 142.853,102.157 147.5,96C 150.815,94.6899 153.815,93.1899 156.5,91.5 Z"/></g>
<g><path style="opacity:0.859" fill="#fd7968" d="M 205.5,96.5 C 201.422,94.8629 197.256,93.5296 193,92.5C 184.932,101.071 176.432,109.071 167.5,116.5C 175.222,108.276 183.222,100.109 191.5,92C 194.207,91.6717 196.874,92.005 199.5,93C 202.025,93.4238 204.025,94.5905 205.5,96.5 Z"/></g>
<g><path style="opacity:0.998" fill="#fe604b" d="M 205.5,96.5 C 213.089,100.632 216.755,107.132 216.5,116C 215.461,132.376 206.794,140.376 190.5,140C 182.631,132.298 174.964,124.465 167.5,116.5C 176.432,109.071 184.932,101.071 193,92.5C 197.256,93.5296 201.422,94.8629 205.5,96.5 Z M 194.5,100.5 C 189.522,105.813 184.522,111.146 179.5,116.5C 184.5,122.167 189.833,127.5 195.5,132.5C 202.945,129.725 206.945,124.392 207.5,116.5C 207.416,107.645 203.082,102.311 194.5,100.5 Z"/></g>
<g><path style="opacity:0.882" fill="#ff7e6d" d="M 156.5,91.5 C 153.815,93.1899 150.815,94.6899 147.5,96C 142.853,102.157 137.187,107.157 130.5,111C 132.724,111.04 134.724,111.206 136.5,111.5C 133.592,112.569 130.592,112.736 127.5,112C 131.548,108.284 135.882,104.95 140.5,102C 142.874,99.961 144.874,97.6277 146.5,95C 149.67,93.2705 153.003,92.1038 156.5,91.5 Z"/></g>
<g><path style="opacity:1" fill="#ff6853" d="M 115.5,109.5 C 124.83,110.647 126.83,114.814 121.5,122C 114.17,123.666 111.003,120.833 112,113.5C 113.376,112.295 114.542,110.962 115.5,109.5 Z"/></g>
<g><path style="opacity:0.594" fill="#fe7c6b" d="M 24.5,77.5 C 25.2389,77.369 25.9056,77.5357 26.5,78C 7.91249,89.0077 -0.0875143,105.174 2.5,126.5C -1.37763,105.247 5.95571,88.9139 24.5,77.5 Z"/></g>
<g><path style="opacity:0.847" fill="#fe7867" d="M 40.5,132.5 C 46.1457,127.521 51.479,122.188 56.5,116.5C 51.4783,111.146 46.4783,105.813 41.5,100.5C 47.4783,104.79 53.1449,110.123 58.5,116.5C 53.3483,122.152 48.015,127.652 42.5,133C 41.5632,133.692 40.8966,133.525 40.5,132.5 Z"/></g>
<g><path style="opacity:0.998" fill="#ff5e4a" d="M 106.5,122.5 C 100.067,126.735 94.4002,131.902 89.5,138C 86.9036,139.136 84.237,139.969 81.5,140.5C 75.3466,139.672 69.0133,139.172 62.5,139C 66.8333,134.667 71.1667,130.333 75.5,126C 77.9398,124.697 80.4398,123.53 83,122.5C 90.921,123.094 98.7543,123.094 106.5,122.5 Z"/></g>
<g><path style="opacity:0.999" fill="#ff634e" d="M 128.5,119.5 C 137.481,121.333 146.481,122.166 155.5,122C 163.228,126.558 169.895,132.391 175.5,139.5C 166.776,140.91 158.109,140.743 149.5,139C 142.167,133 134.833,127 127.5,121C 128.056,120.617 128.389,120.117 128.5,119.5 Z"/></g>
<g><path style="opacity:0.999" fill="#ff624d" d="M 121.5,126.5 C 123.017,126.511 124.184,127.177 125,128.5C 128.57,135.405 133.57,141.071 140,145.5C 142.653,155.015 143.153,164.682 141.5,174.5C 134.775,168.943 128.941,162.61 124,155.5C 123.622,145.785 122.789,136.118 121.5,126.5 Z"/></g>
<g><path style="opacity:0.998" fill="#ff624d" d="M 112.5,126.5 C 113.586,126.62 114.253,127.287 114.5,128.5C 112.967,137.089 112.134,145.756 112,154.5C 107.442,162.228 101.609,168.895 94.5,174.5C 92.8468,164.682 93.3468,155.015 96,145.5C 102.905,140.337 108.405,134.004 112.5,126.5 Z"/></g>
<g><path style="opacity:0.867" fill="#ff7e6e" d="M 106.5,122.5 C 98.7543,123.094 90.921,123.094 83,122.5C 80.4398,123.53 77.9398,124.697 75.5,126C 71.1667,130.333 66.8333,134.667 62.5,139C 69.0133,139.172 75.3466,139.672 81.5,140.5C 74.1591,140.666 66.8258,140.5 59.5,140C 65.6169,132.877 72.6169,126.877 80.5,122C 89.5511,122.353 98.5511,121.519 107.5,119.5C 107.737,120.791 107.404,121.791 106.5,122.5 Z"/></g>
<g><path style="opacity:0.855" fill="#fe7563" d="M 83.5,151.5 C 71.8786,152.292 60.212,152.792 48.5,153C 46.6227,155.251 45.1227,157.751 44,160.5C 43.6012,160.272 43.4346,159.938 43.5,159.5C 44.2421,156.191 45.9088,153.357 48.5,151C 60.3407,150.174 72.0073,150.341 83.5,151.5 Z"/></g>
<g><path style="opacity:0.995" fill="#ff5f4a" d="M 83.5,151.5 C 84.0967,151.735 84.4301,152.235 84.5,153C 83.6987,164.133 83.1987,175.3 83,186.5C 80.6182,188.389 78.1182,190.055 75.5,191.5C 69.2967,191.959 62.9634,191.459 56.5,190C 51.7163,187.55 47.883,184.05 45,179.5C 44.6012,179.728 44.4346,180.062 44.5,180.5C 42.1074,177.149 41.1074,173.316 41.5,169C 41.3275,165.523 41.9942,162.356 43.5,159.5C 43.4346,159.938 43.6012,160.272 44,160.5C 45.1227,157.751 46.6227,155.251 48.5,153C 60.212,152.792 71.8786,152.292 83.5,151.5 Z M 52.5,159.5 C 47.3609,178.359 54.3609,186.025 73.5,182.5C 74.4975,174.862 74.8308,167.196 74.5,159.5C 67.1667,159.5 59.8333,159.5 52.5,159.5 Z"/></g>
<g><path style="opacity:0.994" fill="#ff604b" d="M 180.5,190.5 C 171.389,192.789 162.889,191.456 155,186.5C 154.167,145.172 153.667,145.172 153.5,186.5C 152.505,174.678 152.172,162.678 152.5,150.5C 164.171,150.333 175.838,150.5 187.5,151C 191.092,154.016 193.258,157.849 194,162.5C 196.672,175.485 192.172,184.818 180.5,190.5 Z M 160.5,159.5 C 160.169,166.863 160.503,174.197 161.5,181.5C 166.268,184.63 171.268,185.13 176.5,183C 186.099,177.537 188.432,169.87 183.5,160C 175.841,159.5 168.174,159.334 160.5,159.5 Z"/></g>
<g><path style="opacity:1" fill="#ff8272" d="M 180.5,190.5 C 170.678,195.133 161.678,193.799 153.5,186.5C 153.667,145.172 154.167,145.172 155,186.5C 162.889,191.456 171.389,192.789 180.5,190.5 Z"/></g>
<g><path style="opacity:0.945" fill="#ff7866" d="M 16.5,148.5 C 19.5655,150.699 22.8988,152.366 26.5,153.5C 23.5495,163.952 23.8828,174.286 27.5,184.5C 27.3764,185.107 27.0431,185.44 26.5,185.5C 22.1725,176.026 21.5058,166.193 24.5,156C 21.6021,153.723 18.9354,151.223 16.5,148.5 Z"/></g>
<g><path style="opacity:0.998" fill="#ff5f4a" d="M 120.5,215.5 C 120.389,214.883 120.056,214.383 119.5,214C 105.336,212.926 97.003,205.426 94.5,191.5C 101.652,183.848 108.985,176.348 116.5,169C 116.272,168.601 115.938,168.435 115.5,168.5C 115.75,167.078 116.583,166.078 118,165.5C 125.697,173.531 133.697,181.198 142,188.5C 142.465,203.539 135.298,212.539 120.5,215.5 Z M 117.5,177.5 C 112.12,182.877 107.12,188.544 102.5,194.5C 103.191,197.353 104.524,199.853 106.5,202C 118.651,210.019 127.651,207.352 133.5,194C 128.675,188.009 123.342,182.509 117.5,177.5 Z"/></g>
<g><path style="opacity:0.995" fill="#fe604b" d="M 377.5,167.5 C 378.496,167.414 379.329,167.748 380,168.5C 381.609,173.823 383.109,179.156 384.5,184.5C 391.345,184.042 398.012,184.542 404.5,186C 399.46,190.177 394.46,194.344 389.5,198.5C 392.156,204.284 393.656,210.284 394,216.5C 389,212.833 384,209.167 379,205.5C 374,209.167 369,212.833 364,216.5C 363.667,216.167 363.333,215.833 363,215.5C 364.333,209.5 365.667,203.5 367,197.5C 362.258,193.546 357.424,189.713 352.5,186C 358.988,184.542 365.655,184.042 372.5,184.5C 373.964,178.775 375.631,173.108 377.5,167.5 Z"/></g>
<g><path style="opacity:0.998" fill="#fe604b" d="M 725.5,167.5 C 726.5,167.5 727.5,167.5 728.5,167.5C 729.462,173.219 731.129,178.719 733.5,184C 740.004,184.041 746.338,184.708 752.5,186C 747.576,189.713 742.742,193.546 738,197.5C 739.166,203.514 740.666,209.514 742.5,215.5C 736.931,212.706 731.598,209.373 726.5,205.5C 721.756,209.288 716.923,212.955 712,216.5C 711.5,216 711,215.5 710.5,215C 712.701,209.398 714.701,203.731 716.5,198C 711.833,194.667 707.167,191.333 702.5,188C 701.663,186.989 701.33,185.822 701.5,184.5C 707.868,184.83 714.202,184.496 720.5,183.5C 722.975,178.408 724.642,173.075 725.5,167.5 Z"/></g>
<g><path style="opacity:0.797" fill="#ffffff" d="M 425.5,171.5 C 428.167,171.5 430.833,171.5 433.5,171.5C 433.5,177.5 433.5,183.5 433.5,189.5C 444.853,189.832 456.186,189.499 467.5,188.5C 468.454,182.896 468.788,177.229 468.5,171.5C 470.833,171.5 473.167,171.5 475.5,171.5C 475.667,185.837 475.5,200.171 475,214.5C 472.959,215.423 470.792,215.756 468.5,215.5C 468.81,209.242 468.476,203.076 467.5,197C 456.172,196.5 444.838,196.333 433.5,196.5C 433.666,202.509 433.499,208.509 433,214.5C 430.619,215.435 428.119,215.768 425.5,215.5C 425.5,200.833 425.5,186.167 425.5,171.5 Z"/></g>
<g><path style="opacity:0.8" fill="#ffffff" d="M 503.5,170.5 C 513.303,169.559 522.303,171.725 530.5,177C 532.359,178.558 533.859,180.391 535,182.5C 540.515,198.684 535.348,209.517 519.5,215C 512.833,215.667 506.167,215.667 499.5,215C 488.221,212.05 482.555,204.716 482.5,193C 481.526,184.948 484.526,178.948 491.5,175C 495.432,172.972 499.432,171.472 503.5,170.5 Z M 505.5,176.5 C 513.764,175.775 520.931,178.109 527,183.5C 533.118,199.733 527.451,208.4 510,209.5C 493.999,209.517 487.666,201.851 491,186.5C 494.305,180.778 499.138,177.444 505.5,176.5 Z"/></g>
<g><path style="opacity:0.827" fill="#ffffff" d="M 540.5,171.5 C 557.167,171.5 573.833,171.5 590.5,171.5C 590.5,173.5 590.5,175.5 590.5,177.5C 583.5,177.5 576.5,177.5 569.5,177.5C 569.667,189.838 569.5,202.171 569,214.5C 566.667,215.833 564.333,215.833 562,214.5C 561.5,202.171 561.333,189.838 561.5,177.5C 554.5,177.5 547.5,177.5 540.5,177.5C 540.5,175.5 540.5,173.5 540.5,171.5 Z"/></g>
<g><path style="opacity:0.786" fill="#ffffff" d="M 596.5,171.5 C 610.5,171.5 624.5,171.5 638.5,171.5C 638.739,173.467 638.406,175.301 637.5,177C 626.505,177.5 615.505,177.667 604.5,177.5C 604.5,181.5 604.5,185.5 604.5,189.5C 614.833,189.5 625.167,189.5 635.5,189.5C 635.756,191.792 635.423,193.959 634.5,196C 624.506,196.5 614.506,196.666 604.5,196.5C 604.5,200.5 604.5,204.5 604.5,208.5C 615.838,208.333 627.172,208.5 638.5,209C 639.833,211 639.833,213 638.5,215C 624.504,215.5 610.504,215.667 596.5,215.5C 595.29,200.841 595.29,186.174 596.5,171.5 Z"/></g>
<g><path style="opacity:0.886" fill="#ffffff" d="M 645.5,171.5 C 647.833,171.5 650.167,171.5 652.5,171.5C 652.5,183.833 652.5,196.167 652.5,208.5C 662.506,208.334 672.506,208.5 682.5,209C 683.576,210.726 683.743,212.559 683,214.5C 670.58,215.489 658.08,215.822 645.5,215.5C 645.5,200.833 645.5,186.167 645.5,171.5 Z"/></g>
<g><path style="opacity:0.612" fill="#fe7e6d" d="M 75.5,191.5 C 62.3329,195.557 51.9995,191.89 44.5,180.5C 44.4346,180.062 44.6012,179.728 45,179.5C 47.883,184.05 51.7163,187.55 56.5,190C 62.9634,191.459 69.2967,191.959 75.5,191.5 Z"/></g>
<g><path style="opacity:0.531" fill="#ff7260" d="M 115.5,168.5 C 115.938,168.435 116.272,168.601 116.5,169C 108.985,176.348 101.652,183.848 94.5,191.5C 97.003,205.426 105.336,212.926 119.5,214C 120.056,214.383 120.389,214.883 120.5,215.5C 103.464,214.963 94.631,206.296 94,189.5C 101.035,182.297 108.202,175.297 115.5,168.5 Z"/></g>
<g><path style="opacity:0.906" fill="#ff7a69" d="M 80.5,210.5 C 60.8158,215.446 44.3158,210.113 31,194.5C 29.295,192.423 28.1283,190.09 27.5,187.5C 27.4346,187.062 27.6012,186.728 28,186.5C 39.3558,206.259 56.1892,213.592 78.5,208.5C 79.737,208.556 80.737,209.056 81.5,210C 81.2716,210.399 80.9382,210.565 80.5,210.5 Z"/></g>
<g><path style="opacity:0.933" fill="#ff8372" d="M 89.5,221.5 C 99.7152,229.24 111.049,232.907 123.5,232.5C 110.416,234.473 99.0829,230.806 89.5,221.5 Z"/></g>
</svg>
